<?xml version="1.0" standalone="no"?>
<!DOCTYPE svg PUBLIC "-//W3C//DTD SVG 20010904//EN"
 "http://www.w3.org/TR/2001/REC-SVG-20010904/DTD/svg10.dtd">
<svg version="1.0" xmlns="http://www.w3.org/2000/svg"
 width="30000pt" height="90000pt" viewBox="0 0 614 460"
 <circle id="diente1" cx="20" cy="20" r="10" fill="white" stroke="black" />
  <circle id="diente2" cx="40" cy="20" r="10" fill="white" stroke="black" />
  <circle id="diente3" cx="60" cy="20" r="10" fill="white" stroke="black" />

 preserveAspectRatio="xMidYMid meet">

<g transform="translate(0.000000,460.000000) scale(0.100000,-0.100000)"
fill="#000000" stroke="none">
<path d="M0 3430 l0 -1170 3028 2 c1665 2 2857 4 2650 5 l-378 3 0 190 0 190
378 3 377 2 -377 3 -378 2 -3 188 -2 187 -3 -187 -2 -188 -185 0 -185 0 -3
188 -2 187 -3 -187 -2 -188 -185 0 -185 0 -3 188 -2 187 -3 -187 -2 -188 -370
0 -370 0 -3 188 -2 187 -3 -187 -2 -188 -185 0 -185 0 -3 188 -2 187 -3 -187
-2 -188 -180 0 -180 0 0 248 0 247 25 -32 c96 -121 273 -89 316 57 13 44 29
53 29 17 0 -32 50 -99 93 -126 94 -58 225 -2 258 109 13 44 29 53 29 17 0 -32
50 -99 93 -126 94 -58 225 -2 258 109 13 44 29 53 29 17 0 -32 50 -99 93 -126
94 -58 225 -2 258 109 13 44 29 53 29 17 0 -32 50 -99 93 -126 64 -40 162 -25
216 33 12 13 30 45 41 72 15 39 19 43 20 23 0 -34 49 -100 93 -128 94 -58 225
-2 258 109 13 44 29 53 29 17 0 -32 50 -99 93 -126 94 -58 225 -2 258 109 13
44 29 53 29 17 0 -32 50 -99 93 -126 36 -22 95 -29 137 -16 73 22 135 111 132
189 -3 69 -72 149 -145 166 -23 6 -6 8 61 9 75 1 92 4 92 16 0 12 -15 15 -72
15 -72 0 -73 0 -43 16 46 24 66 45 88 94 38 86 11 171 -71 224 -56 36 -102 41
-161 15 -62 -26 -76 -42 -107 -116 -21 -51 -24 -54 -24 -27 0 38 -46 104 -92
131 -54 33 -100 37 -157 12 -62 -26 -76 -42 -107 -116 -21 -51 -24 -54 -24
-27 0 38 -46 104 -92 131 -54 33 -100 37 -157 12 -62 -26 -76 -42 -107 -116
-21 -51 -24 -54 -24 -27 0 43 -53 118 -98 140 -53 26 -119 22 -170 -10 -41
-26 -62 -55 -87 -125 l-14 -36 0 31 c-1 38 -47 104 -93 131 -54 33 -100 37
-157 12 -62 -26 -76 -42 -107 -116 -21 -51 -24 -54 -24 -27 0 38 -46 104 -92
131 -54 33 -100 37 -157 12 -62 -26 -76 -42 -107 -116 -21 -51 -24 -54 -24
-27 0 38 -46 104 -92 131 -54 33 -100 37 -157 12 -62 -26 -76 -42 -107 -116
-21 -51 -24 -54 -24 -27 0 64 -83 144 -163 158 -52 10 -139 -30 -167 -76 l-20
-33 0 253 0 252 180 0 180 0 3 -192 2 -193 3 193 2 192 185 0 185 0 3 -192 2
-193 3 193 2 192 370 0 370 0 3 -192 2 -193 3 193 2 192 185 0 185 0 3 -192 2
-193 3 193 2 192 185 0 185 0 3 -192 2 -193 3 192 2 193 378 3 377 2 -377 3
-378 2 0 185 0 185 378 3 c207 1 -985 3 -2650 5 l-3028 2 0 -1170z m1130 975
l0 -185 -560 0 -560 0 0 185 0 185 560 0 560 0 0 -185z m380 0 l0 -185 -185 0
-185 0 0 185 0 185 185 0 185 0 0 -185z m380 0 l0 -185 -185 0 -185 0 0 185 0
185 185 0 185 0 0 -185z m1130 0 l0 -185 -560 0 -560 0 0 185 0 185 560 0 560
0 0 -185z m380 0 l0 -185 -185 0 -185 0 0 185 0 185 185 0 185 0 0 -185z m380
0 l0 -185 -185 0 -185 0 0 185 0 185 185 0 185 0 0 -185z m750 0 l0 -185 -370
0 -370 0 0 185 0 185 370 0 370 0 0 -185z m380 0 l0 -185 -185 0 -185 0 0 185
0 185 185 0 185 0 0 -185z m380 0 l0 -185 -185 0 -185 0 0 185 0 185 185 0
185 0 0 -185z m-4158 -387 l3 -193 2 193 3 192 185 0 185 0 2 -192 3 -193 2
193 3 192 185 0 185 0 2 -192 3 -193 2 193 3 192 555 0 555 0 0 -246 0 -247
-32 34 c-84 89 -213 84 -285 -10 -18 -24 -33 -53 -33 -67 0 -36 -18 -29 -26
11 -11 61 -75 113 -160 130 -73 14 -194 -74 -194 -141 0 -36 -18 -29 -26 11
-11 61 -75 113 -160 130 -74 14 -192 -73 -195 -143 -1 -23 -3 -22 -13 12 -45
146 -241 175 -329 50 -35 -51 -41 -120 -13 -176 21 -43 82 -88 134 -98 20 -4
-53 -8 -163 -8 -110 0 -191 2 -180 5 11 2 30 6 42 9 31 6 90 60 107 98 45 96
-3 207 -103 241 -51 17 -81 14 -139 -12 -39 -17 -92 -86 -92 -120 0 -35 -18
-27 -26 12 -11 61 -75 113 -160 130 -73 14 -194 -74 -194 -141 0 -36 -18 -29
-26 11 -11 61 -75 113 -160 130 -73 14 -194 -74 -194 -141 0 -36 -18 -29 -26
11 -3 19 -20 49 -38 68 -82 87 -211 81 -284 -12 l-32 -43 0 256 0 256 560 0
560 0 2 -192z m-851 -247 l23 -21 -22 -20 c-17 -16 -26 -18 -41 -10 -24 12
-81 13 -100 1 -10 -7 -25 -3 -45 11 l-31 22 23 -26 c19 -21 22 -30 13 -46 -15
-27 -14 -68 1 -92 11 -17 9 -23 -8 -40 -28 -29 -49 -17 -64 35 -34 120 52 222
177 211 34 -3 60 -12 74 -25z m380 0 l23 -21 -22 -20 c-17 -16 -26 -18 -41
-10 -24 12 -81 13 -100 1 -10 -7 -25 -3 -45 11 l-31 22 23 -26 c19 -21 22 -30
13 -46 -15 -27 -14 -68 1 -92 11 -17 9 -23 -8 -40 -28 -29 -49 -17 -64 35 -34
120 52 222 177 211 34 -3 60 -12 74 -25z m380 0 l23 -21 -22 -20 c-17 -16 -26
-18 -41 -10 -24 12 -81 13 -100 1 -10 -7 -25 -3 -45 11 l-31 22 23 -26 c19
-21 22 -30 13 -46 -15 -27 -14 -68 1 -92 11 -17 9 -23 -8 -40 -28 -29 -49 -17
-64 35 -34 120 52 222 177 211 34 -3 60 -12 74 -25z m376 -1 c15 -11 33 -30
41 -42 35 -49 33 -158 -4 -189 -12 -10 -19 -9 -36 8 -16 17 -18 24 -9 41 15
27 14 85 -1 100 -9 9 -6 18 13 39 l24 28 -25 -22 c-18 -16 -30 -19 -40 -13
-20 13 -76 13 -100 0 -13 -7 -25 -4 -46 13 l-29 22 22 -31 c15 -21 19 -35 12
-45 -11 -18 -11 -80 1 -99 6 -10 3 -21 -12 -37 -12 -13 -18 -23 -14 -23 4 0
16 10 25 21 14 18 21 20 39 10 11 -6 33 -11 47 -11 14 0 36 5 47 11 18 10 25
8 40 -11 22 -28 11 -45 -37 -59 -97 -26 -197 32 -210 123 -17 114 66 203 178
192 27 -3 59 -14 74 -26z m384 1 l23 -21 -22 -20 c-17 -16 -26 -18 -41 -10
-24 12 -81 13 -100 1 -10 -7 -25 -3 -45 11 l-31 22 23 -26 c19 -21 22 -30 13
-46 -15 -27 -14 -68 1 -92 11 -17 9 -23 -8 -40 -28 -29 -49 -17 -64 35 -34
120 52 222 177 211 34 -3 60 -12 74 -25z m370 0 l23 -21 -22 -20 c-17 -16 -26
-18 -41 -10 -24 12 -81 13 -100 1 -10 -7 -25 -3 -45 11 l-31 22 23 -26 c19
-21 22 -30 13 -46 -15 -27 -14 -68 1 -92 11 -17 9 -23 -8 -40 -28 -29 -49 -17
-64 35 -34 120 52 222 177 211 34 -3 60 -12 74 -25z m380 0 l23 -21 -22 -20
c-17 -16 -26 -18 -41 -10 -24 12 -81 13 -100 1 -10 -7 -25 -3 -45 11 l-31 22
23 -26 c19 -21 22 -30 13 -46 -15 -27 -14 -68 1 -92 11 -17 9 -23 -8 -40 -28
-29 -49 -17 -64 35 -34 120 52 222 177 211 34 -3 60 -12 74 -25z m380 0 l23
-21 -22 -20 c-17 -16 -26 -18 -41 -10 -24 12 -81 13 -100 1 -10 -7 -25 -3 -45
11 l-31 22 23 -26 c19 -21 22 -30 13 -46 -15 -27 -14 -68 1 -92 11 -17 9 -23
-8 -40 -28 -29 -49 -17 -64 35 -34 120 52 222 177 211 34 -3 60 -12 74 -25z
m349 9 c46 -23 48 -30 20 -55 -17 -15 -24 -16 -46 -7 -31 15 -71 15 -79 2 -9
-15 -36 -12 -57 7 -27 24 -22 39 20 56 51 22 96 21 142 -3z m380 0 c46 -23 48
-30 20 -55 -17 -15 -24 -16 -46 -7 -31 15 -71 15 -79 2 -9 -15 -36 -12 -57 7
-27 24 -22 39 20 56 51 22 96 21 142 -3z m380 0 c46 -23 48 -30 20 -55 -17
-15 -24 -16 -46 -7 -31 15 -71 15 -79 2 -9 -15 -36 -12 -57 7 -27 24 -22 39
20 56 51 22 96 21 142 -3z m380 0 c46 -23 48 -30 20 -55 -17 -15 -24 -16 -46
-7 -31 15 -71 15 -79 2 -9 -15 -36 -12 -57 7 -27 24 -22 39 20 56 51 22 96 21
142 -3z m364 6 c46 -19 53 -34 28 -59 -19 -19 -24 -19 -47 -7 -21 11 -34 12
-72 2 -25 -7 -46 -11 -47 -10 -1 2 -10 13 -20 25 l-19 23 44 20 c52 23 88 25
133 6z m386 -6 c46 -23 48 -30 20 -55 -17 -15 -24 -16 -46 -7 -31 15 -71 15
-79 2 -9 -15 -36 -12 -57 7 -27 24 -22 39 20 56 51 22 96 21 142 -3z m380 0
c46 -23 48 -30 20 -55 -17 -15 -24 -16 -46 -7 -31 15 -71 15 -79 2 -9 -15 -36
-12 -57 7 -27 24 -22 39 20 56 51 22 96 21 142 -3z m380 0 c46 -23 48 -30 20
-55 -17 -15 -24 -16 -46 -7 -31 15 -71 15 -79 2 -9 -15 -36 -12 -57 7 -27 24
-22 39 20 56 51 22 96 21 142 -3z m-5600 -55 c45 -54 18 -209 -33 -190 -23 9
-26 27 -14 73 8 32 8 47 -2 65 -11 21 -10 27 5 46 22 25 28 26 44 6z m380 0
c45 -54 18 -209 -33 -190 -23 9 -26 27 -14 73 8 32 8 47 -2 65 -11 21 -10 27
5 46 22 25 28 26 44 6z m380 0 c45 -54 18 -209 -33 -190 -23 9 -26 27 -14 73
8 32 8 47 -2 65 -11 21 -10 27 5 46 22 25 28 26 44 6z m760 0 c45 -54 18 -209
-33 -190 -23 9 -26 27 -14 73 8 32 8 47 -2 65 -11 21 -10 27 5 46 22 25 28 26
44 6z m370 0 c45 -54 18 -209 -33 -190 -23 9 -26 27 -14 73 8 32 8 47 -2 65
-11 21 -10 27 5 46 22 25 28 26 44 6z m380 0 c45 -54 18 -209 -33 -190 -23 9
-26 27 -14 73 8 32 8 47 -2 65 -11 21 -10 27 5 46 22 25 28 26 44 6z m380 0
c45 -54 18 -209 -33 -190 -23 9 -26 27 -14 73 8 32 8 47 -2 65 -11 21 -10 27
5 46 22 25 28 26 44 6z m134 -4 c16 -17 16 -24 5 -55 -11 -29 -11 -43 0 -72
11 -31 11 -38 -5 -55 -24 -27 -31 -24 -55 23 -22 44 -22 95 0 151 12 32 31 35
55 8z m246 -26 c20 -48 18 -98 -7 -147 -16 -33 -18 -34 -46 -8 -18 17 -20 24
-9 40 15 25 15 62 0 94 -9 22 -8 29 7 46 26 29 33 25 55 -25z m134 26 c16 -17
16 -24 5 -55 -11 -29 -11 -43 0 -72 11 -31 11 -38 -5 -55 -24 -27 -31 -24 -55
23 -22 44 -22 95 0 151 12 32 31 35 55 8z m246 -26 c20 -48 18 -98 -7 -147
-16 -33 -18 -34 -46 -8 -18 17 -20 24 -9 40 15 25 15 62 0 94 -9 22 -8 29 7
46 26 29 33 25 55 -25z m134 26 c16 -17 16 -24 5 -55 -11 -29 -11 -43 0 -72
11 -31 11 -38 -5 -55 -24 -27 -31 -24 -55 23 -22 44 -22 95 0 151 12 32 31 35
55 8z m246 -26 c20 -48 18 -98 -7 -147 -16 -33 -18 -34 -46 -8 -18 17 -20 24
-9 40 15 25 15 62 0 94 -9 22 -8 29 7 46 26 29 33 25 55 -25z m134 26 c16 -17
16 -24 5 -55 -11 -29 -11 -43 0 -72 11 -31 11 -38 -5 -55 -24 -27 -31 -24 -55
23 -22 44 -22 95 0 151 12 32 31 35 55 8z m246 -26 c20 -48 18 -98 -7 -147
-16 -33 -18 -34 -46 -8 -18 17 -20 24 -9 40 15 25 15 62 0 94 -9 22 -8 29 7
46 26 29 33 25 55 -25z m133 22 c10 -15 12 -29 6 -38 -12 -20 -11 -76 3 -98 9
-15 7 -23 -10 -42 l-22 -23 -22 24 c-18 20 -23 36 -22 85 0 100 32 144 67 92z
m231 -1 c27 -42 26 -138 -3 -175 l-18 -24 -22 22 c-17 17 -19 26 -11 41 13 24
13 76 0 100 -8 15 -6 24 7 40 22 26 27 25 47 -4z m140 5 c16 -17 16 -24 5 -55
-11 -29 -11 -43 0 -72 11 -31 11 -38 -5 -55 -24 -27 -31 -24 -55 23 -22 44
-22 95 0 151 12 32 31 35 55 8z m246 -26 c20 -48 18 -98 -7 -147 -16 -33 -18
-34 -46 -8 -18 17 -20 24 -9 40 15 25 15 62 0 94 -9 22 -8 29 7 46 26 29 33
25 55 -25z m134 26 c16 -17 16 -24 5 -55 -11 -29 -11 -43 0 -72 11 -31 11 -38
-5 -55 -24 -27 -31 -24 -55 23 -22 44 -22 95 0 151 12 32 31 35 55 8z m246
-26 c20 -48 18 -98 -7 -147 -16 -33 -18 -34 -46 -8 -18 17 -20 24 -9 40 15 25
15 62 0 94 -9 22 -8 29 7 46 26 29 33 25 55 -25z m134 26 c16 -17 16 -24 5
-55 -11 -29 -11 -43 0 -72 11 -31 11 -38 -5 -55 -24 -27 -31 -24 -55 23 -22
44 -22 95 0 151 12 32 31 35 55 8z m246 -26 c20 -48 18 -98 -7 -147 -16 -33
-18 -34 -46 -8 -18 17 -20 24 -9 40 15 25 15 62 0 94 -9 22 -8 29 7 46 26 29
33 25 55 -25z m-5762 -1 c17 -11 22 -24 22 -59 0 -37 -4 -47 -30 -65 -24 -17
-39 -21 -65 -16 -43 8 -65 39 -65 88 0 32 5 41 33 58 34 22 65 20 105 -6z
m380 0 c17 -11 22 -24 22 -59 0 -37 -4 -47 -30 -65 -24 -17 -39 -21 -65 -16
-43 8 -65 39 -65 88 0 32 5 41 33 58 34 22 65 20 105 -6z m380 0 c17 -11 22
-24 22 -59 0 -37 -4 -47 -30 -65 -24 -17 -39 -21 -65 -16 -43 8 -65 39 -65 88
0 32 5 41 33 58 34 22 65 20 105 -6z m355 14 c28 -14 47 -46 47 -79 0 -26 -53
-79 -79 -79 -55 0 -95 47 -84 101 8 39 29 56 84 68 3 0 17 -5 32 -11z m405
-14 c17 -11 22 -24 22 -59 0 -37 -4 -47 -30 -65 -24 -17 -39 -21 -65 -16 -43
8 -65 39 -65 88 0 32 5 41 33 58 34 22 65 20 105 -6z m370 0 c17 -11 22 -24
22 -59 0 -37 -4 -47 -30 -65 -24 -17 -39 -21 -65 -16 -43 8 -65 39 -65 88 0
32 5 41 33 58 34 22 65 20 105 -6z m380 0 c17 -11 22 -24 22 -59 0 -37 -4 -47
-30 -65 -24 -17 -39 -21 -65 -16 -43 8 -65 39 -65 88 0 32 5 41 33 58 34 22
65 20 105 -6z m380 0 c17 -11 22 -24 22 -59 0 -37 -4 -47 -30 -65 -24 -17 -39
-21 -65 -16 -43 8 -65 39 -65 88 0 32 5 41 33 58 34 22 65 20 105 -6z m372 -4
c28 -28 27 -87 -2 -117 -26 -28 -92 -32 -120 -6 -26 23 -24 90 4 120 28 30 89
32 118 3z m380 0 c28 -28 27 -87 -2 -117 -26 -28 -92 -32 -120 -6 -26 23 -24
90 4 120 28 30 89 32 118 3z m380 0 c28 -28 27 -87 -2 -117 -26 -28 -92 -32
-120 -6 -26 23 -24 90 4 120 28 30 89 32 118 3z m380 0 c28 -28 27 -87 -2
-117 -26 -28 -92 -32 -120 -6 -26 23 -24 90 4 120 28 30 89 32 118 3z m370 0
c30 -30 35 -65 13 -102 -16 -28 -25 -33 -62 -36 -52 -4 -78 15 -87 64 -9 51
25 94 77 94 25 0 46 -7 59 -20z m380 0 c28 -28 27 -87 -2 -117 -26 -28 -92
-32 -120 -6 -26 23 -24 90 4 120 28 30 89 32 118 3z m380 0 c28 -28 27 -87 -2
-117 -26 -28 -92 -32 -120 -6 -26 23 -24 90 4 120 28 30 89 32 118 3z m380 0
c28 -28 27 -87 -2 -117 -26 -28 -92 -32 -120 -6 -26 23 -24 90 4 120 28 30 89
32 118 3z m-5508 -147 c16 -31 82 -75 126 -83 21 -5 -46 -8 -153 -8 -174 -1
-186 0 -147 13 24 7 53 22 64 32 33 29 68 90 69 120 0 25 2 24 15 -12 8 -22
19 -50 26 -62z m380 0 c16 -31 82 -75 126 -83 21 -5 -46 -8 -153 -8 -174 -1
-186 0 -147 13 24 7 53 22 64 32 33 29 68 90 69 120 0 25 2 24 15 -12 8 -22
19 -50 26 -62z m414 -40 c19 -17 52 -36 72 -41 28 -8 -7 -10 -143 -10 -166 -1
-177 0 -137 13 24 7 53 22 64 32 33 29 68 90 69 120 0 22 5 16 20 -27 12 -35
32 -66 55 -87z m1096 40 c16 -31 82 -75 126 -83 21 -5 -46 -8 -153 -8 -174 -1
-186 0 -147 13 24 7 53 22 64 32 33 29 68 90 69 120 0 25 2 24 15 -12 8 -22
19 -50 26 -62z m380 0 c16 -31 82 -75 126 -83 21 -5 -46 -8 -153 -8 -174 -1
-186 0 -147 13 24 7 53 22 64 32 33 29 68 90 69 120 0 25 2 24 15 -12 8 -22
19 -50 26 -62z m728 56 c0 -33 38 -87 83 -120 l40 -29 -139 0 c-135 0 -138 1
-106 17 43 21 79 64 93 113 13 43 29 53 29 19z m380 0 c0 -33 38 -87 83 -120
l40 -29 -139 0 c-135 0 -138 1 -106 17 43 21 79 64 93 113 13 43 29 53 29 19z
m380 0 c0 -33 38 -87 83 -120 l40 -29 -139 0 c-135 0 -138 1 -106 17 43 21 79
64 93 113 13 43 29 53 29 19z m380 1 c0 -46 44 -108 96 -135 27 -14 20 -15
-111 -15 -136 0 -139 1 -107 17 43 21 79 64 93 113 13 42 29 53 29 20z m370
-1 c0 -33 38 -87 83 -120 l40 -29 -134 0 -134 0 30 19 c45 28 72 61 86 109 13
45 29 56 29 21z m380 0 c0 -33 38 -87 83 -120 l40 -29 -139 0 c-135 0 -138 1
-106 17 43 21 79 64 93 113 13 43 29 53 29 19z m380 0 c0 -33 38 -87 83 -120
l40 -29 -139 0 c-135 0 -138 1 -106 17 43 21 79 64 93 113 13 43 29 53 29 19z
m-3763 -46 c18 -38 81 -84 131 -93 21 -5 -43 -8 -148 -8 -171 -1 -182 0 -141
13 52 16 91 52 117 105 11 22 21 34 23 27 2 -7 10 -26 18 -44z m-1836 -59 c22
-15 57 -31 77 -34 27 -6 12 -8 -55 -9 l-93 -1 0 68 0 67 16 -32 c9 -17 34 -44
55 -59z m2929 16 l0 -60 -82 1 -83 0 46 15 c44 13 109 70 109 94 0 6 2 10 5
10 3 0 5 -27 5 -60z m-2863 39 c11 -11 73 -8 103 4 9 4 22 -3 33 -18 17 -24
17 -25 -7 -40 -37 -25 -148 -23 -175 2 -20 18 -20 20 -3 41 19 24 33 27 49 11z
m380 0 c11 -11 73 -8 103 4 9 4 22 -3 33 -18 17 -24 17 -25 -7 -40 -37 -25
-148 -23 -175 2 -20 18 -20 20 -3 41 19 24 33 27 49 11z m380 0 c11 -11 73 -8
103 4 9 4 22 -3 33 -18 17 -24 17 -25 -7 -40 -37 -25 -148 -23 -175 2 -20 18
-20 20 -3 41 19 24 33 27 49 11z m760 0 c11 -11 73 -8 103 4 9 4 22 -3 33 -18
17 -24 17 -25 -7 -40 -37 -25 -148 -23 -175 2 -20 18 -20 20 -3 41 19 24 33
27 49 11z m370 0 c11 -11 73 -8 103 4 9 4 22 -3 33 -18 17 -24 17 -25 -7 -40
-37 -25 -148 -23 -175 2 -20 18 -20 20 -3 41 19 24 33 27 49 11z m380 0 c11
-11 73 -8 103 4 9 4 22 -3 33 -18 17 -24 17 -25 -7 -40 -37 -25 -148 -23 -175
2 -20 18 -20 20 -3 41 19 24 33 27 49 11z m380 0 c11 -11 73 -8 103 4 9 4 22
-3 33 -18 17 -24 17 -25 -7 -40 -37 -25 -148 -23 -175 2 -20 18 -20 20 -3 41
19 24 33 27 49 11z m321 -74 l37 -25 -58 0 -57 0 0 53 1 52 20 -28 c12 -15 38
-39 57 -52z m85 58 c16 -3 39 0 52 7 20 11 26 9 45 -10 19 -19 20 -24 8 -36
-24 -25 -105 -34 -154 -17 -24 8 -47 19 -50 25 -10 16 29 48 51 42 11 -3 33
-8 48 -11z m380 0 c16 -3 39 0 52 7 20 11 26 9 45 -10 19 -19 20 -24 8 -36
-24 -25 -105 -34 -154 -17 -24 8 -47 19 -50 25 -10 16 29 48 51 42 11 -3 33
-8 48 -11z m380 0 c16 -3 39 0 52 7 20 11 26 9 45 -10 19 -19 20 -24 8 -36
-24 -25 -105 -34 -154 -17 -24 8 -47 19 -50 25 -10 16 29 48 51 42 11 -3 33
-8 48 -11z m380 0 c16 -3 39 0 52 7 20 11 26 9 45 -10 19 -19 20 -24 8 -36
-24 -25 -105 -34 -154 -17 -24 8 -47 19 -50 25 -10 16 29 48 51 42 11 -3 33
-8 48 -11z m342 7 c8 -13 61 -13 87 1 27 15 68 -21 50 -44 -32 -38 -153 -40
-190 -3 -15 14 -14 17 4 35 21 22 40 26 49 11z m408 -7 c16 -3 39 0 52 7 20
11 26 9 45 -10 19 -19 20 -24 8 -36 -24 -25 -105 -34 -154 -17 -24 8 -47 19
-50 25 -10 16 29 48 51 42 11 -3 33 -8 48 -11z m380 0 c16 -3 39 0 52 7 20 11
26 9 45 -10 19 -19 20 -24 8 -36 -24 -25 -105 -34 -154 -17 -24 8 -47 19 -50
25 -10 16 29 48 51 42 11 -3 33 -8 48 -11z m380 0 c16 -3 39 0 52 7 20 11 26
9 45 -10 19 -19 20 -24 8 -36 -24 -25 -105 -34 -154 -17 -24 8 -47 19 -50 25
-10 16 29 48 51 42 11 -3 33 -8 48 -11z m-5744 -140 c-39 -20 -60 -39 -76 -68
l-23 -40 0 68 0 67 77 0 77 0 -55 -27z m386 3 c-60 -28 -70 -39 -101 -113 -21
-51 -24 -54 -24 -27 0 58 -76 138 -145 155 -16 4 49 7 145 8 l175 1 -50 -24z
m380 0 c-60 -28 -70 -39 -101 -113 -21 -51 -24 -54 -24 -27 0 58 -76 138 -145
155 -16 4 49 7 145 8 l175 1 -50 -24z m380 0 c-60 -28 -70 -39 -101 -113 -21
-51 -24 -54 -24 -27 0 58 -76 138 -145 155 -16 4 49 7 145 8 l175 1 -50 -24z
m380 0 c-60 -28 -70 -39 -101 -113 -21 -51 -24 -54 -24 -27 0 58 -76 138 -145
155 -16 4 49 7 145 8 l175 1 -50 -24z m364 -3 c-44 -23 -59 -37 -79 -78 l-25
-50 -20 39 c-25 48 -82 95 -127 106 -21 5 30 8 136 9 l170 1 -55 -27z m386 3
c-60 -28 -70 -39 -101 -113 -21 -51 -24 -54 -24 -27 0 58 -76 138 -145 155
-16 4 49 7 145 8 l175 1 -50 -24z m380 0 c-60 -28 -70 -39 -101 -113 -21 -51
-24 -54 -24 -27 0 58 -76 138 -145 155 -16 4 49 7 145 8 l175 1 -50 -24z m245
-33 l0 -58 -25 31 c-30 38 -69 65 -110 75 -21 5 -5 7 53 8 l82 1 0 -57z m123
32 c-33 -15 -60 -36 -73 -57 l-20 -33 0 58 0 57 73 0 72 0 -52 -25z m382 1
c-60 -28 -70 -39 -101 -113 -21 -51 -24 -54 -24 -27 0 58 -76 138 -145 155
-16 4 49 7 145 8 l175 1 -50 -24z m380 0 c-60 -28 -70 -39 -101 -113 -21 -51
-24 -54 -24 -27 0 58 -76 138 -145 155 -16 4 49 7 145 8 l175 1 -50 -24z m380
0 c-60 -28 -70 -39 -101 -113 -21 -51 -24 -54 -24 -27 0 58 -76 138 -145 155
-16 4 49 7 145 8 l175 1 -50 -24z m380 0 c-60 -28 -70 -39 -101 -113 -21 -51
-24 -54 -24 -27 0 58 -76 138 -145 155 -16 4 49 7 145 8 l175 1 -50 -24z m364
-3 c-44 -23 -59 -37 -79 -78 l-25 -50 -20 39 c-25 48 -82 95 -127 106 -21 5
30 8 136 9 l170 1 -55 -27z m386 3 c-60 -28 -70 -39 -101 -113 -21 -51 -24
-54 -24 -27 0 58 -76 138 -145 155 -16 4 49 7 145 8 l175 1 -50 -24z m380 0
c-60 -28 -70 -39 -101 -113 -21 -51 -24 -54 -24 -27 0 58 -76 138 -145 155
-16 4 49 7 145 8 l175 1 -50 -24z m-5525 -16 c46 -23 48 -30 20 -55 -17 -15
-24 -16 -46 -7 -31 15 -71 15 -79 2 -9 -15 -36 -12 -57 7 -27 24 -22 39 20 56
51 22 96 21 142 -3z m380 0 c46 -23 48 -30 20 -55 -17 -15 -24 -16 -46 -7 -31
15 -71 15 -79 2 -9 -15 -36 -12 -57 7 -27 24 -22 39 20 56 51 22 96 21 142 -3z
m380 0 c46 -23 48 -30 20 -55 -17 -15 -24 -16 -46 -7 -31 15 -71 15 -79 2 -9
-15 -36 -12 -57 7 -27 24 -22 39 20 56 51 22 96 21 142 -3z m380 0 c46 -23 48
-30 20 -55 -17 -15 -24 -16 -46 -7 -31 15 -71 15 -79 2 -9 -15 -36 -12 -57 7
-27 24 -22 39 20 56 51 22 96 21 142 -3z m380 0 c46 -23 48 -30 20 -55 -17
-15 -24 -16 -46 -7 -31 15 -71 15 -79 2 -9 -15 -36 -12 -57 7 -27 24 -22 39
20 56 51 22 96 21 142 -3z m370 0 c46 -23 48 -30 20 -55 -17 -15 -24 -16 -46
-7 -31 15 -71 15 -79 2 -9 -15 -36 -12 -57 7 -27 24 -22 39 20 56 51 22 96 21
142 -3z m380 0 c46 -23 48 -30 20 -55 -17 -15 -24 -16 -46 -7 -31 15 -71 15
-79 2 -9 -15 -36 -12 -57 7 -27 24 -22 39 20 56 51 22 96 21 142 -3z m380 0
c46 -23 48 -30 20 -55 -17 -15 -24 -16 -46 -7 -31 15 -71 15 -79 2 -9 -15 -36
-12 -57 7 -27 24 -22 39 20 56 51 22 96 21 142 -3z m370 0 c46 -23 48 -30 20
-55 -17 -15 -24 -16 -46 -7 -31 15 -71 15 -79 2 -9 -15 -36 -12 -57 7 -27 24
-22 39 20 56 51 22 96 21 142 -3z m380 0 c46 -23 48 -30 20 -55 -17 -15 -24
-16 -46 -7 -31 15 -71 15 -79 2 -9 -15 -36 -12 -57 7 -27 24 -22 39 20 56 51
22 96 21 142 -3z m380 0 c46 -23 48 -30 20 -55 -17 -15 -24 -16 -46 -7 -31 15
-71 15 -79 2 -9 -15 -36 -12 -57 7 -27 24 -22 39 20 56 51 22 96 21 142 -3z
m380 0 c46 -23 48 -30 20 -55 -17 -15 -24 -16 -46 -7 -31 15 -71 15 -79 2 -9
-15 -36 -12 -57 7 -27 24 -22 39 20 56 51 22 96 21 142 -3z m380 0 c46 -23 48
-30 20 -55 -17 -15 -24 -16 -46 -7 -31 15 -71 15 -79 2 -9 -15 -36 -12 -57 7
-27 24 -22 39 20 56 51 22 96 21 142 -3z m370 0 c46 -23 48 -30 20 -55 -17
-15 -24 -16 -46 -7 -31 15 -71 15 -79 2 -9 -15 -36 -12 -57 7 -27 24 -22 39
20 56 51 22 96 21 142 -3z m380 0 c46 -23 48 -30 20 -55 -17 -15 -24 -16 -46
-7 -31 15 -71 15 -79 2 -9 -15 -36 -12 -57 7 -27 24 -22 39 20 56 51 22 96 21
142 -3z m380 0 c46 -23 48 -30 20 -55 -17 -15 -24 -16 -46 -7 -31 15 -71 15
-79 2 -9 -15 -36 -12 -57 7 -27 24 -22 39 20 56 51 22 96 21 142 -3z m-5836
-59 c16 -17 16 -24 5 -55 -11 -29 -11 -43 0 -72 11 -31 11 -38 -5 -55 -24 -27
-31 -24 -55 23 -22 44 -22 95 0 151 12 32 31 35 55 8z m246 -26 c20 -48 18
-98 -7 -147 -16 -33 -18 -34 -46 -8 -18 17 -20 24 -9 40 15 25 15 62 0 94 -9
22 -8 29 7 46 26 29 33 25 55 -25z m134 26 c16 -17 16 -24 5 -55 -11 -29 -11
-43 0 -72 11 -31 11 -38 -5 -55 -24 -27 -31 -24 -55 23 -22 44 -22 95 0 151
12 32 31 35 55 8z m246 -26 c20 -48 18 -98 -7 -147 -16 -33 -18 -34 -46 -8
-18 17 -20 24 -9 40 15 25 15 62 0 94 -9 22 -8 29 7 46 26 29 33 25 55 -25z
m134 26 c16 -17 16 -24 5 -55 -11 -29 -11 -43 0 -72 11 -31 11 -38 -5 -55 -24
-27 -31 -24 -55 23 -22 44 -22 95 0 151 12 32 31 35 55 8z m246 -26 c20 -48
18 -98 -7 -147 -16 -33 -18 -34 -46 -8 -18 17 -20 24 -9 40 15 25 15 62 0 94
-9 22 -8 29 7 46 26 29 33 25 55 -25z m134 26 c16 -17 16 -24 5 -55 -11 -29
-11 -43 0 -72 11 -31 11 -38 -5 -55 -24 -27 -31 -24 -55 23 -22 44 -22 95 0
151 12 32 31 35 55 8z m246 -26 c20 -48 18 -98 -7 -147 -16 -33 -18 -34 -46
-8 -18 17 -20 24 -9 40 15 25 15 62 0 94 -9 22 -8 29 7 46 26 29 33 25 55 -25z
m134 26 c16 -17 16 -24 5 -55 -11 -29 -11 -43 0 -72 11 -31 11 -38 -5 -55 -24
-27 -31 -24 -55 23 -22 44 -22 95 0 151 12 32 31 35 55 8z m246 -26 c20 -48
18 -98 -7 -147 -16 -33 -18 -34 -46 -8 -18 17 -20 24 -9 40 15 25 15 62 0 94
-9 22 -8 29 7 46 26 29 33 25 55 -25z m124 26 c16 -17 16 -24 5 -55 -11 -29
-11 -43 0 -72 11 -31 11 -38 -5 -55 -24 -27 -31 -24 -55 23 -22 44 -22 95 0
151 12 32 31 35 55 8z m246 -26 c20 -48 18 -98 -7 -147 -16 -33 -18 -34 -46
-8 -18 17 -20 24 -9 40 15 25 15 62 0 94 -9 22 -8 29 7 46 26 29 33 25 55 -25z
m134 26 c16 -17 16 -24 5 -55 -11 -29 -11 -43 0 -72 11 -31 11 -38 -5 -55 -24
-27 -31 -24 -55 23 -22 44 -22 95 0 151 12 32 31 35 55 8z m246 -26 c20 -48
18 -98 -7 -147 -16 -33 -18 -34 -46 -8 -18 17 -20 24 -9 40 15 25 15 62 0 94
-9 22 -8 29 7 46 26 29 33 25 55 -25z m134 26 c16 -17 16 -24 5 -55 -11 -29
-11 -43 0 -72 11 -31 11 -38 -5 -55 -24 -27 -31 -24 -55 23 -22 44 -22 95 0
151 12 32 31 35 55 8z m246 -26 c20 -48 18 -98 -7 -147 -16 -33 -18 -34 -46
-8 -18 17 -20 24 -9 40 15 25 15 62 0 94 -9 22 -8 29 7 46 26 29 33 25 55 -25z
m124 26 c16 -17 16 -24 5 -55 -11 -29 -11 -43 0 -72 11 -31 11 -38 -5 -55 -24
-27 -31 -24 -55 23 -22 44 -22 95 0 151 12 32 31 35 55 8z m246 -26 c20 -48
18 -98 -7 -147 -16 -33 -18 -34 -46 -8 -18 17 -20 24 -9 40 15 25 15 62 0 94
-9 22 -8 29 7 46 26 29 33 25 55 -25z m134 26 c16 -17 16 -24 5 -55 -11 -29
-11 -43 0 -72 11 -31 11 -38 -5 -55 -24 -27 -31 -24 -55 23 -22 44 -22 95 0
151 12 32 31 35 55 8z m246 -26 c20 -48 18 -98 -7 -147 -16 -33 -18 -34 -46
-8 -18 17 -20 24 -9 40 15 25 15 62 0 94 -9 22 -8 29 7 46 26 29 33 25 55 -25z
m134 26 c16 -17 16 -24 5 -55 -11 -29 -11 -43 0 -72 11 -31 11 -38 -5 -55 -24
-27 -31 -24 -55 23 -22 44 -22 95 0 151 12 32 31 35 55 8z m246 -26 c20 -48
18 -98 -7 -147 -16 -33 -18 -34 -46 -8 -18 17 -20 24 -9 40 15 25 15 62 0 94
-9 22 -8 29 7 46 26 29 33 25 55 -25z m134 26 c16 -17 16 -24 5 -55 -11 -29
-11 -43 0 -72 11 -31 11 -38 -5 -55 -24 -27 -31 -24 -55 23 -22 44 -22 95 0
151 12 32 31 35 55 8z m246 -26 c20 -48 18 -98 -7 -147 -16 -33 -18 -34 -46
-8 -18 17 -20 24 -9 40 15 25 15 62 0 94 -9 22 -8 29 7 46 26 29 33 25 55 -25z
m134 26 c16 -17 16 -24 5 -55 -11 -29 -11 -43 0 -72 11 -31 11 -38 -5 -55 -24
-27 -31 -24 -55 23 -22 44 -22 95 0 151 12 32 31 35 55 8z m246 -26 c20 -48
18 -98 -7 -147 -16 -33 -18 -34 -46 -8 -18 17 -20 24 -9 40 15 25 15 62 0 94
-9 22 -8 29 7 46 26 29 33 25 55 -25z m124 26 c16 -17 16 -24 5 -55 -11 -29
-11 -43 0 -72 11 -31 11 -38 -5 -55 -24 -27 -31 -24 -55 23 -22 44 -22 95 0
151 12 32 31 35 55 8z m246 -26 c20 -48 18 -98 -7 -147 -16 -33 -18 -34 -46
-8 -18 17 -20 24 -9 40 15 25 15 62 0 94 -9 22 -8 29 7 46 26 29 33 25 55 -25z
m134 26 c16 -17 16 -24 5 -55 -11 -29 -11 -43 0 -72 11 -31 11 -38 -5 -55 -24
-27 -31 -24 -55 23 -22 44 -22 95 0 151 12 32 31 35 55 8z m246 -26 c20 -48
18 -98 -7 -147 -16 -33 -18 -34 -46 -8 -18 17 -20 24 -9 40 15 25 15 62 0 94
-9 22 -8 29 7 46 26 29 33 25 55 -25z m134 26 c16 -17 16 -24 5 -55 -11 -29
-11 -43 0 -72 11 -31 11 -38 -5 -55 -24 -27 -31 -24 -55 23 -22 44 -22 95 0
151 12 32 31 35 55 8z m246 -26 c20 -48 18 -98 -7 -147 -16 -33 -18 -34 -46
-8 -18 17 -20 24 -9 40 15 25 15 62 0 94 -9 22 -8 29 7 46 26 29 33 25 55 -25z
m-5760 -5 c28 -28 27 -87 -2 -117 -26 -28 -92 -32 -120 -6 -26 23 -24 90 4
120 28 30 89 32 118 3z m380 0 c28 -28 27 -87 -2 -117 -26 -28 -92 -32 -120
-6 -26 23 -24 90 4 120 28 30 89 32 118 3z m380 0 c28 -28 27 -87 -2 -117 -26
-28 -92 -32 -120 -6 -26 23 -24 90 4 120 28 30 89 32 118 3z m380 0 c28 -28
27 -87 -2 -117 -26 -28 -92 -32 -120 -6 -26 23 -24 90 4 120 28 30 89 32 118
3z m380 0 c28 -28 27 -87 -2 -117 -26 -28 -92 -32 -120 -6 -26 23 -24 90 4
120 28 30 89 32 118 3z m370 0 c28 -28 27 -87 -2 -117 -26 -28 -92 -32 -120
-6 -26 23 -24 90 4 120 28 30 89 32 118 3z m380 0 c28 -28 27 -87 -2 -117 -26
-28 -92 -32 -120 -6 -26 23 -24 90 4 120 28 30 89 32 118 3z m380 0 c28 -28
27 -87 -2 -117 -26 -28 -92 -32 -120 -6 -26 23 -24 90 4 120 28 30 89 32 118
3z m370 0 c28 -28 27 -87 -2 -117 -26 -28 -92 -32 -120 -6 -26 23 -24 90 4
120 28 30 89 32 118 3z m380 0 c28 -28 27 -87 -2 -117 -26 -28 -92 -32 -120
-6 -26 23 -24 90 4 120 28 30 89 32 118 3z m380 0 c28 -28 27 -87 -2 -117 -26
-28 -92 -32 -120 -6 -26 23 -24 90 4 120 28 30 89 32 118 3z m380 0 c28 -28
27 -87 -2 -117 -26 -28 -92 -32 -120 -6 -26 23 -24 90 4 120 28 30 89 32 118
3z m380 0 c28 -28 27 -87 -2 -117 -26 -28 -92 -32 -120 -6 -26 23 -24 90 4
120 28 30 89 32 118 3z m370 0 c28 -28 27 -87 -2 -117 -26 -28 -92 -32 -120
-6 -26 23 -24 90 4 120 28 30 89 32 118 3z m380 0 c28 -28 27 -87 -2 -117 -26
-28 -92 -32 -120 -6 -26 23 -24 90 4 120 28 30 89 32 118 3z m380 0 c28 -28
27 -87 -2 -117 -26 -28 -92 -32 -120 -6 -26 23 -24 90 4 120 28 30 89 32 118
3z m-5530 -93 c0 -32 50 -99 93 -126 94 -58 225 -2 258 109 13 44 29 53 29 17
0 -32 50 -99 93 -126 94 -58 225 -2 258 109 13 44 29 53 29 17 0 -32 50 -99
93 -126 94 -58 225 -2 258 109 13 44 29 53 29 17 0 -32 50 -99 93 -126 64 -40
162 -25 216 33 12 13 30 45 41 72 15 39 19 43 20 23 0 -34 49 -100 93 -128 94
-58 225 -2 258 109 13 44 29 53 29 17 0 -32 50 -99 93 -126 94 -58 225 -2 258
109 13 44 29 53 29 17 0 -32 50 -99 93 -126 78 -48 188 -19 238 63 19 31 19
31 19 -221 l0 -253 -555 0 -555 0 -2 188 -3 187 -2 -187 -3 -188 -185 0 -185
0 -2 188 -3 187 -2 -187 -3 -188 -185 0 -185 0 -2 188 -3 187 -2 -187 -3 -188
-560 0 -560 0 0 257 0 256 29 -40 c39 -54 89 -83 144 -85 82 -1 154 52 178
132 13 44 29 53 29 17z m-207 -64 c16 -3 39 0 52 7 20 11 26 9 45 -10 19 -19
20 -24 8 -36 -24 -25 -105 -34 -154 -17 -24 8 -47 19 -50 25 -10 16 29 48 51
42 11 -3 33 -8 48 -11z m380 0 c16 -3 39 0 52 7 20 11 26 9 45 -10 19 -19 20
-24 8 -36 -24 -25 -105 -34 -154 -17 -24 8 -47 19 -50 25 -10 16 29 48 51 42
11 -3 33 -8 48 -11z m380 0 c16 -3 39 0 52 7 20 11 26 9 45 -10 19 -19 20 -24
8 -36 -24 -25 -105 -34 -154 -17 -24 8 -47 19 -50 25 -10 16 29 48 51 42 11
-3 33 -8 48 -11z m380 0 c16 -3 39 0 52 7 20 11 26 9 45 -10 19 -19 20 -24 8
-36 -24 -25 -105 -34 -154 -17 -24 8 -47 19 -50 25 -10 16 29 48 51 42 11 -3
33 -8 48 -11z m380 0 c16 -3 39 0 52 7 20 11 26 9 45 -10 19 -19 20 -24 8 -36
-24 -25 -105 -34 -154 -17 -24 8 -47 19 -50 25 -10 16 29 48 51 42 11 -3 33
-8 48 -11z m370 0 c16 -3 39 0 52 7 20 11 26 9 45 -10 19 -19 20 -24 8 -36
-24 -25 -105 -34 -154 -17 -24 8 -47 19 -50 25 -10 16 29 48 51 42 11 -3 33
-8 48 -11z m380 0 c16 -3 39 0 52 7 20 11 26 9 45 -10 19 -19 20 -24 8 -36
-24 -25 -105 -34 -154 -17 -24 8 -47 19 -50 25 -10 16 29 48 51 42 11 -3 33
-8 48 -11z m380 0 c16 -3 39 0 52 7 20 11 26 9 45 -10 19 -19 20 -24 8 -36
-24 -25 -105 -34 -154 -17 -24 8 -47 19 -50 25 -10 16 29 48 51 42 11 -3 33
-8 48 -11z m370 0 c16 -3 39 0 52 7 20 11 26 9 45 -10 19 -19 20 -24 8 -36
-24 -25 -105 -34 -154 -17 -24 8 -47 19 -50 25 -10 16 29 48 51 42 11 -3 33
-8 48 -11z m380 0 c16 -3 39 0 52 7 20 11 26 9 45 -10 19 -19 20 -24 8 -36
-24 -25 -105 -34 -154 -17 -24 8 -47 19 -50 25 -10 16 29 48 51 42 11 -3 33
-8 48 -11z m380 0 c16 -3 39 0 52 7 20 11 26 9 45 -10 19 -19 20 -24 8 -36
-24 -25 -105 -34 -154 -17 -24 8 -47 19 -50 25 -10 16 29 48 51 42 11 -3 33
-8 48 -11z m380 0 c16 -3 39 0 52 7 20 11 26 9 45 -10 19 -19 20 -24 8 -36
-24 -25 -105 -34 -154 -17 -24 8 -47 19 -50 25 -10 16 29 48 51 42 11 -3 33
-8 48 -11z m380 0 c16 -3 39 0 52 7 20 11 26 9 45 -10 19 -19 20 -24 8 -36
-24 -25 -105 -34 -154 -17 -24 8 -47 19 -50 25 -10 16 29 48 51 42 11 -3 33
-8 48 -11z m370 0 c16 -3 39 0 52 7 20 11 26 9 45 -10 19 -19 20 -24 8 -36
-24 -25 -105 -34 -154 -17 -24 8 -47 19 -50 25 -10 16 29 48 51 42 11 -3 33
-8 48 -11z m380 0 c16 -3 39 0 52 7 20 11 26 9 45 -10 19 -19 20 -24 8 -36
-24 -25 -105 -34 -154 -17 -24 8 -47 19 -50 25 -10 16 29 48 51 42 11 -3 33
-8 48 -11z m380 0 c16 -3 39 0 52 7 20 11 26 9 45 -10 19 -19 20 -24 8 -36
-24 -25 -105 -34 -154 -17 -24 8 -47 19 -50 25 -10 16 29 48 51 42 11 -3 33
-8 48 -11z m-4723 -673 l0 -190 -560 0 -560 0 0 190 0 190 560 0 560 0 0 -190z
m380 0 l0 -190 -185 0 -185 0 0 190 0 190 185 0 185 0 0 -190z m380 0 l0 -190
-185 0 -185 0 0 190 0 190 185 0 185 0 0 -190z m1130 0 l0 -190 -560 0 -560 0
0 190 0 190 560 0 560 0 0 -190z m380 0 l0 -190 -185 0 -185 0 0 190 0 190
185 0 185 0 0 -190z m380 0 l0 -190 -185 0 -185 0 0 190 0 190 185 0 185 0 0
-190z m750 0 l0 -190 -370 0 -370 0 0 190 0 190 370 0 370 0 0 -190z m380 0
l0 -190 -185 0 -185 0 0 190 0 190 185 0 185 0 0 -190z m380 0 l0 -190 -185 0
-185 0 0 190 0 190 185 0 185 0 0 -190z"/>
<path d="M168 3902 c-6 -39 0 -52 22 -52 25 0 31 12 24 49 -9 41 -40 43 -46 3z
m32 8 c0 -5 -4 -10 -10 -10 -5 0 -10 5 -10 10 0 6 5 10 10 10 6 0 10 -4 10
-10z m0 -35 c0 -8 -4 -15 -10 -15 -5 0 -10 7 -10 15 0 8 5 15 10 15 6 0 10 -7
10 -15z"/>
<path d="M562 3923 c16 -4 17 -7 2 -35 -8 -16 -13 -32 -10 -36 7 -7 7 -6 29
41 l17 37 -28 -1 c-16 -1 -20 -3 -10 -6z"/>
<path d="M938 3906 c-13 -29 -5 -56 17 -56 9 0 15 9 15 25 0 14 -4 25 -10 25
-5 0 -7 7 -4 15 10 25 -6 17 -18 -9z m22 -31 c0 -8 -4 -15 -10 -15 -5 0 -10 7
-10 15 0 8 5 15 10 15 6 0 10 -7 10 -15z"/>
<path d="M1306 3914 c-9 -22 -8 -24 9 -24 8 0 15 -7 15 -16 0 -11 -6 -14 -21
-9 -15 5 -19 4 -15 -4 10 -16 43 -14 50 4 3 8 -1 21 -9 29 -19 19 -19 24 3 29
13 4 12 5 -4 6 -12 0 -25 -6 -28 -15z"/>
<path d="M1687 3900 c-18 -29 -18 -30 2 -30 12 0 21 -6 21 -12 0 -10 2 -10 8
0 9 14 3 72 -7 72 -4 0 -15 -13 -24 -30z m23 -10 c0 -5 -5 -10 -11 -10 -5 0
-7 5 -4 10 3 6 8 10 11 10 2 0 4 -4 4 -10z"/>
<path d="M2065 3920 c-3 -6 1 -7 9 -4 9 3 16 2 16 -4 0 -6 -6 -13 -12 -15 -10
-4 -10 -6 0 -6 6 -1 12 -8 12 -17 0 -11 -6 -14 -21 -9 -15 5 -19 4 -15 -4 9
-13 43 -15 50 -2 3 5 3 23 0 40 -6 30 -27 41 -39 21z"/>
<path d="M2440 3920 c0 -5 7 -7 15 -4 22 9 18 -16 -7 -43 l-21 -23 34 1 c19 1
26 3 16 6 -15 4 -16 7 -3 25 8 11 12 27 9 34 -6 16 -43 19 -43 4z"/>
<path d="M2827 3922 c6 -4 13 -23 16 -42 4 -33 4 -33 5 8 2 34 -1 42 -15 42
-12 0 -14 -3 -6 -8z"/>
<path d="M168 2982 c-6 -39 0 -52 22 -52 25 0 31 12 24 49 -9 41 -40 43 -46 3z
m32 8 c0 -5 -4 -10 -10 -10 -5 0 -10 5 -10 10 0 6 5 10 10 10 6 0 10 -4 10
-10z m0 -35 c0 -8 -4 -15 -10 -15 -5 0 -10 7 -10 15 0 8 5 15 10 15 6 0 10 -7
10 -15z"/>
<path d="M562 3003 c16 -4 17 -7 2 -35 -8 -16 -13 -32 -10 -36 7 -7 7 -6 29
41 l17 37 -28 -1 c-16 -1 -20 -3 -10 -6z"/>
<path d="M938 2986 c-13 -29 -5 -56 17 -56 9 0 15 9 15 25 0 14 -4 25 -10 25
-5 0 -7 7 -4 15 10 25 -6 17 -18 -9z m22 -31 c0 -8 -4 -15 -10 -15 -5 0 -10 7
-10 15 0 8 5 15 10 15 6 0 10 -7 10 -15z"/>
<path d="M1306 2994 c-9 -22 -8 -24 9 -24 8 0 15 -7 15 -16 0 -11 -6 -14 -21
-9 -15 5 -19 4 -15 -4 10 -16 43 -14 50 4 3 8 -1 21 -9 29 -19 19 -19 24 3 29
13 4 12 5 -4 6 -12 0 -25 -6 -28 -15z"/>
<path d="M1687 2980 c-18 -29 -18 -30 2 -30 12 0 21 -6 21 -12 0 -10 2 -10 8
0 9 14 3 72 -7 72 -4 0 -15 -13 -24 -30z m23 -10 c0 -5 -5 -10 -11 -10 -5 0
-7 5 -4 10 3 6 8 10 11 10 2 0 4 -4 4 -10z"/>
<path d="M2065 3000 c-3 -6 1 -7 9 -4 9 3 16 2 16 -4 0 -6 -6 -13 -12 -15 -10
-4 -10 -6 0 -6 6 -1 12 -8 12 -17 0 -11 -6 -14 -21 -9 -15 5 -19 4 -15 -4 9
-13 43 -15 50 -2 3 5 3 23 0 40 -6 30 -27 41 -39 21z"/>
<path d="M2440 3000 c0 -5 7 -7 15 -4 22 9 18 -16 -7 -43 l-21 -23 34 1 c19 1
26 3 16 6 -15 4 -16 7 -3 25 8 11 12 27 9 34 -6 16 -43 19 -43 4z"/>
<path d="M2827 3002 c6 -4 13 -23 16 -42 4 -33 4 -33 5 8 2 34 -1 42 -15 42
-12 0 -14 -3 -6 -8z"/>
<path d="M3197 3922 c6 -4 13 -23 16 -42 4 -33 4 -33 5 8 2 34 -1 42 -15 42
-12 0 -14 -3 -6 -8z"/>
<path d="M3570 3920 c0 -5 7 -7 15 -4 22 9 18 -16 -7 -43 l-21 -23 34 1 c19 1
26 3 16 6 -15 4 -16 7 -3 25 8 11 12 27 9 34 -6 16 -43 19 -43 4z"/>
<path d="M3955 3920 c-3 -6 1 -7 9 -4 9 3 16 2 16 -4 0 -6 -6 -13 -12 -15 -10
-4 -10 -6 0 -6 6 -1 12 -8 12 -17 0 -11 -6 -14 -21 -9 -15 5 -19 4 -15 -4 9
-13 43 -15 50 -2 3 5 3 23 0 40 -6 30 -27 41 -39 21z"/>
<path d="M4337 3900 c-18 -29 -18 -30 2 -30 12 0 21 -6 21 -12 0 -10 2 -10 8
0 9 14 3 72 -7 72 -4 0 -15 -13 -24 -30z m23 -10 c0 -5 -5 -10 -11 -10 -5 0
-7 5 -4 10 3 6 8 10 11 10 2 0 4 -4 4 -10z"/>
<path d="M4716 3914 c-9 -22 -8 -24 9 -24 8 0 15 -7 15 -16 0 -11 -6 -14 -21
-9 -15 5 -19 4 -15 -4 10 -16 43 -14 50 4 3 8 -1 21 -9 29 -19 19 -19 24 3 29
13 4 12 5 -4 6 -12 0 -25 -6 -28 -15z"/>
<path d="M5088 3906 c-13 -29 -5 -56 17 -56 9 0 15 9 15 25 0 14 -4 25 -10 25
-5 0 -7 7 -4 15 10 25 -6 17 -18 -9z m22 -31 c0 -8 -4 -15 -10 -15 -5 0 -10 7
-10 15 0 8 5 15 10 15 6 0 10 -7 10 -15z"/>
<path d="M5472 3923 c16 -4 17 -7 2 -35 -8 -16 -13 -32 -10 -36 7 -7 7 -6 29
41 l17 37 -28 -1 c-16 -1 -20 -3 -10 -6z"/>
<path d="M5838 3902 c-6 -39 0 -52 22 -52 25 0 31 12 24 49 -9 41 -40 43 -46
3z m32 8 c0 -5 -4 -10 -10 -10 -5 0 -10 5 -10 10 0 6 5 10 10 10 6 0 10 -4 10
-10z m0 -35 c0 -8 -4 -15 -10 -15 -5 0 -10 7 -10 15 0 8 5 15 10 15 6 0 10 -7
10 -15z"/>
<path d="M3197 3002 c6 -4 13 -23 16 -42 4 -33 4 -33 5 8 2 34 -1 42 -15 42
-12 0 -14 -3 -6 -8z"/>
<path d="M3570 3000 c0 -5 7 -7 15 -4 22 9 18 -16 -7 -43 l-21 -23 34 1 c19 1
26 3 16 6 -15 4 -16 7 -3 25 8 11 12 27 9 34 -6 16 -43 19 -43 4z"/>
<path d="M3955 3000 c-3 -6 1 -7 9 -4 9 3 16 2 16 -4 0 -6 -6 -13 -12 -15 -10
-4 -10 -6 0 -6 6 -1 12 -8 12 -17 0 -11 -6 -14 -21 -9 -15 5 -19 4 -15 -4 9
-13 43 -15 50 -2 3 5 3 23 0 40 -6 30 -27 41 -39 21z"/>
<path d="M4337 2980 c-18 -29 -18 -30 2 -30 12 0 21 -6 21 -12 0 -10 2 -10 8
0 9 14 3 72 -7 72 -4 0 -15 -13 -24 -30z m23 -10 c0 -5 -5 -10 -11 -10 -5 0
-7 5 -4 10 3 6 8 10 11 10 2 0 4 -4 4 -10z"/>
<path d="M4716 2994 c-9 -22 -8 -24 9 -24 8 0 15 -7 15 -16 0 -11 -6 -14 -21
-9 -15 5 -19 4 -15 -4 10 -16 43 -14 50 4 3 8 -1 21 -9 29 -19 19 -19 24 3 29
13 4 12 5 -4 6 -12 0 -25 -6 -28 -15z"/>
<path d="M5088 2986 c-13 -29 -5 -56 17 -56 9 0 15 9 15 25 0 14 -4 25 -10 25
-5 0 -7 7 -4 15 10 25 -6 17 -18 -9z m22 -31 c0 -8 -4 -15 -10 -15 -5 0 -10 7
-10 15 0 8 5 15 10 15 6 0 10 -7 10 -15z"/>
<path d="M5472 3003 c16 -4 17 -7 2 -35 -8 -16 -13 -32 -10 -36 7 -7 7 -6 29
41 l17 37 -28 -1 c-16 -1 -20 -3 -10 -6z"/>
<path d="M5838 2982 c-6 -39 0 -52 22 -52 25 0 31 12 24 49 -9 41 -40 43 -46
3z m32 8 c0 -5 -4 -10 -10 -10 -5 0 -10 5 -10 10 0 6 5 10 10 10 6 0 10 -4 10
-10z m0 -35 c0 -8 -4 -15 -10 -15 -5 0 -10 7 -10 15 0 8 5 15 10 15 6 0 10 -7
10 -15z"/>
</g>
</svg>
